<svg xmlns="http://www.w3.org/2000/svg" width="2289" height="1536"><path fill="#7ab1e1" d="m969 118 7 1 27 13 33 15 6 3h8l16-7 29-6 13-2 26-5h15l36 7 33 6 16 7h7l37-17 24-11 7-3h7l14 10 15 13 3 3 2 11 5 31v8l-6 11-10 16-1 3v9l1 12-3 7-10 15v11l7 49 5 38v13l-16 24-1 9 8 21 9 24 7 19 11 29 8 20 8 22 1 12 3 80 3 8 7 7 7 8 12 13 7 8 7 7 7 8 9 10 3 9 15 65 3 10 4 2 10-8 12-12 14-21 7-17 3-13 1-10v-15l-4-13-13-30-10-18-9-16-15-26-17-32-7-16-6-16-9-28-2-7v-10l5-47 3-24 4-12 13-22 12-19 6-9 10-13 10-7 26-14 22-12 14-6 13-1 37-1h29l27 14 19 11 10 7 5 8 9 21 5 13-2 10-13 37-8 7-23 11-10 4h-11l-20-2-27-1-7 3-9 6-7 6-6 10-6 18v13l5 16 14 27 10 17 15 26 8 16 8 16 6 14 6 23 4 20 2 12 1 13v11l-2 21-5 36-5 21-10 18-15 23-13 17-12 16-14 14-15 9-27 16-15 8-17 6-32 7-3 1-1 4 8 16 5 10 1 8-13 32-5 6-110 1-10 8h-152l-6-5-11-16-5-1-7 9-8 11-3 2H971l-6-4-5-4-109-1-5-5-8-19-6-15 1-7 8-16 10-19 5-4 8-4 1-1-1-8-14-37-11-27-11-29v-8l14-61 6-25 9-11 10-10 7-8 12-13 14-15 7-8 1-3 3-76 1-17 6-18 11-29 11-30 16-42 7-18v-7l-15-23-2-4v-11l12-88v-11l-10-16-2-3v-25l-5-9-9-14-3-5v-9l6-37 3-7 12-11 10-8Z"/><path fill="#cdd3d4" d="m980 145 7 1 30 14 19 10 6 3 8-1 26-11 20-4 28-5 12-2 8-1 26 5 34 6 19 8 13 5 7-1 39-19 15-7h6l-1 5-13 19-18 27-2 6 3 8 11 16 12 16 7 11 4 29-1 5-3 3-3-3-5-5-11-10-6-4h-6l-9 9-4 2-24 4-19 5-4 2-5-1 1-5 6-14v-7l-7-13-5-5-4 2-2 7 1 9 2 11-6 7-21 12-3 2-3-3 1 5 3 3 1 9-5-1 1 2 5 3 1 1h8v-2l5-1 2 5-3 11v8l2 13 4 1 2-4 3-11 8-7 20-1 12-6 6-5 6-10 4-8 9-8 7-4 5 1 2 5 1 9-1 2 2 1v2h-4v2l3 1 1 3h-5v2l3 1-1 4-1-3h-3l1 9-2 4v5h2v2l-3 3-1 3h-2l-2 4-11 9-8 6-7 1v-2l-2 2v4h-2v8l-3-4 1-8h2l-1-2-5-2-3-1-2 3 4 1 3 7-2 6h-2l2 3 4-1 2-1 2 7-3 3 1 3h-4v-2h-6v-2h-2v-2h2v-3l-4-1-1-1-1 2h-3l4 10 8 15-1 5-4 3-21 9h-2l1 3 13-1 11-1 2 3-1 5-4 4-22 6h-3l1 4 15 1 3 1 1 5-14 9-9 5-7-1-25-12-8-4-2-3v-12l4-5 13-9 11-7 5-5 6-12 1-7-4 1-4 4-5 1-3-1h-9l-18 5h-9l-18-5h-7l-9 1-4-4-4-1 1 7 7 12 7 6 11 7 13 11 1 2v10l-5 6-24 11-9 4-6-1-18-11-2-2 1-5 16-2 1-4-17-4-8-3-4-4-1-4 4-4 16 3h7l-1-3-23-10-2-2v-6l7-15v-5l-6 4-7 7-8 12-3 5-4 3-18 6-17 5-6-2-7-10-12-20-8-11-4-7 1-7 13-11 5-2v-2l7-5 4-7 8-30 2-9v-5l-3-1-9 7-3 5v13l-1 2-4-1-4-6-2-5-3-1-1-7-1-1 1-14 3-16 2-18 4-7 13-18 9-12 2-7 1-5-4-1-1 1 2 1v4l-4-1-18-13-2-3 1-1h6l4 2 8 1v2l5 1v4h2l-1-10-14-21-15-22Z"/><path fill="#ced4d5" d="m979 431 4 1 9 15 17 28 9 15 15 26 7 6 18 13 17 12 17 12 18 13 18 13 11 8 3 4 1 23-1 5 3 1 1 4-2 1v-3h-2l3 13-2 1-1 3h2l2 5-3 4-1 5 2 1 2 2v5l2 1v-2l2-1-2-2h2v-2h4l2-3-4 1-1-3 2-4 3 3 3-1 13-19 5-10 4-5 1-3 4-4 7-11 8-12 9-14 12-17 7-11 10-14 6-8 3-2h3l2 4v5l4 6 8 22 3 3v5l2 3 1 5h4v-7l3-3v-9h2l6-21 2-9 2-4 1-12 4 3 3-8-4-2 4-2 3 1-1-4 4-2v2h3l1-3 4 1v8l2-2-1-4v-14l-3-23-1-4v-9h4l6 15 12 31 11 29 5 14-1 4-5-2-15-13-4-2-2 4-1 11-7 8-8 7-6 5-7 8-12 12-4-1-3 7-6 6-5 3-18 13-5 4h-2l1 3-5 1-11 8-3 4-5 1-4 3-1 3-5 1-5 4-2 3-2 4-3-1-5 3-4 4-2 2-1 3-8 2-2 4 7 2-4 4-6-1-2-4h-2l-2 6h-2l-2 4v-2l-5 1-4 5h-3v6l1 3-3 1v32h2v2h-4v-3h-2l2 6 1 1 1 9 2 1v3h-2v5h2v-4h2l2 4 2-1-2-1 1-4h3v8h-2l-1 3 2 2-3 1v2h-2l-1-5-3-1v4h2l-1 4-1 2 4-2v4h4v-2h-2l1-4h6l2-1v5l-2 1v3l-5 8-3 2-3 7-1 2h-2l1 3-3 1-1-5-2-1-6 1v2h-2l-4-8h5l7 3-3-7-10-15-12-19-14-20-10-15-10-15-11-16-7-11-20-30-17-26-8-12h-2l-1 6 4 57 2 33v15l3 14 6 16 8 30 2 7 4 10 3 9 1 3v7h2l8 26v5l-3 1-8-16-16-12-4-2-1 1v8l3 20 4 6 10 9 10 8 9 7 3 1 4 6 4-1 1 3-4 1-1 7-9 23v4l2 2 39 9 7 2 4 6-1 10-2 31-5 2-7-4-4-2v-2l-3-1-3-6-2-8-5 1-4 7v15l-2 3-5-1-3-3-6-2-5-3h-2l-2 2-1-3h-2l-4-6v-7l2-12h-4l-2 6-9 16v8l2 14-4 4h-15l-5-4-6-26v-7l2-8-8 2-5 4h-2l-2 4 1 5 2 14v12l-2 3h-8l-5-5-5-19v-9l3-8 11-14 8-10h2v-2l2-1 24-2 1-1 12-1 17-3 1-5-8-12-10-13-14-18-14-18-7-9v-2l-3 1-1 7v63l-5 1-6-21-15-46-6-20-8-25 1-5 4 1 13 14 7 8 10 11v2l4-2 2-17 2-27v-6l-4-6-17-16-10-9-5-4-4-5v-10l2-1v-8h2v-4h-4v-2h4v-4h-2v-2l-2-1 4-1v2h2v-4l-3 1-1-3h2l1-4h-3l-1-3-3 2v-3h-2l-2 4-3-1 1-3 1-1-3-1v-5l2 1v2l2-1 1-3h3l1-3 3 1v-2h-4l1-8h-3l-1-4 1-4-4-1-3 9-9 23-2 6-4 1-1-1v-22l3-83 1-17 5-1 5 13 8 20 4 12 5 2 3-11 6-17v-10l-4-45-1-5-4-1-5 1-2 5-10 9h-4v-6l13-34 7-18 16-43 5-10Z"/><path fill="#a7baca" d="m1317 543 1 2v7l-1 1v12l-1 22 9 28 4 2 5-10 13-34 1-2 5 1 3 79 1 29 1 19-1 7 1 4h-2l-2 6-1 10-5 16-4 8h-3l-1 2h2l1 5-1 4-4 1-2-4 1-4 1-2h-3l-2-5v-4l-2-1-2-7-4-1-12 11-2 1-7 8-12 10-2 3v14l3 32 2 7 4-1 9-11 7-7 7-8 7-8 3 1-1 9-11 35-9 29-8 25-5 16h-5v-69h-4l-9 12-14 18-14 18-12 16-5 7 2 5 34 5 19 2 8 6 9 12 7 9v5h-8l-9-2-9-6-5 1 1 8-2 5v2h-2v-2l-3 2v2l4 1 1 4-1 8h-2l-1 3 2 1-2 2 1 1-1 4-3 3-7 1-10-1-2-2v-8l2-1 2 4v1h2v-5l-2-1 4-1v-2l2 1v3l2 1-4 1v3l8-1-2-6h-2v-5l4-1v-2h-2v-2l-8-1 1 2 5 1v2h-2l-1 3-6 1-2-12-12-20-3-1 2 12v5l-3 6-6 2-1 2-6 1-8 4 1 5h-3l-1-2-1 2h-2l-2-5v-16l-5-7h-4l-2 9-5 6-4 1v2l-5 3h-2v2l-5 2-2-3-1-29-1-13 2-5 3-2 44-10h2l1-6-3-8-5-14-3-6-4 1-8 10-6 7-9 11-5 6h-4v-7l9-35 10-36 4-13 2-3h4v-4h-2l-1 2v-8l2 2-1-6 1-4h2v-5l6-9 5-6 7-10 1 2h2l-1-3 6-9 4-7 9-11 5-5 9-16 1-3 2-26 1-11 3-57 2-24h-5l-1 4h-2l-2 6-3 5-1 4h-2l1 3-1 2h-3l1 7-4 1-1 3 2 1-3 10-6 14-4 4 1 5-9 19-2 2-2 6h-3v2l-3 1 3 1v2l-2 2 1 3-1 2h-2l-1 7-8 20-3 5-2 7-2 2-5 16-6 10-7 9-14 19-8 11-14 19-6 7-5-1-13-17-8-11-11-14-1-3-4-4-10-13-7-11-12-29-11-25-6-16-8-18-7-17-5-10-10-26-3-10-3-3-4-10-3-1-3 1 1-6h4l10 15 15 23 20 30 9 14 11 16 8 12 8 12 16 23 14 22 10 15v4l-7-2h-4l3 5v2h2v-2l9-2 1 3v3l1-3h2l3-9 4-2 2-5 3-4v-3h2l-2-3-6-1-1 4h2v2h-4l-1-3-3 1 2-6h-2v-4h4v6h2v-2l2-1-2-3h2v-2h2v-8h-3l-1 4 3 1-3 1-1 2-1-6h-2v4h-2v-5h2v-3l-3-1-1-9-2-2v-5h2v3h4v-2h-2v-32l2-2-1-6 1-2 3-1 4-5 3-1 3 1 1-2h2l2-6 3-1 3 5 6-1v-2l-6-2 2-4 7-3h2l1-2-2-1 5-2 5-6 4-1v2h2v-5h2l5-5 5-3 2 1 1-4 7-4 8-6 5-4 5-3h2v-2l18-13 9-7 5-3 4-4 3-7 4 1 17-17 5-5 9-9Zm-59 435"/><path fill="#7ab1e1" d="M1602 1046h46l6 5 9 12 10 13 12 16 10 13 5 1 5-5 14-19 14-18 10-14 4-3h74l3 5-10 13-12 16-14 18-14 19-16 21-14 19-2 3 1 6 13 18 14 18 15 20 14 19 10 13 12 16 2 5-2 3h-73l-8-7-10-14-13-16-8-11-8-11h-6l-2 4-15 20-16 21-8 11-5 3h-75l-2-5 14-18 14-19 14-18 14-19 16-21 9-13v-6l-10-13-14-19-12-16-16-21-13-18-14-18-2-3 1-5Z"/><path fill="#7cb1e1" d="M754 1046h31l8 7 13 16 12 14 8 10 14 17 13 16 10 13 13 16 11 13 11 14 11 14h4l1-40v-101l2-7 2-2h37l3 3 1 7v198l-1 22-4 3h-31l-6-4-9-11-11-13-9-11-8-10-14-17-7-9-13-16-10-12-10-13-11-14-13-16-3-4-4-1-1 147-4 4h-36l-4-4v-225Z"/><path fill="#7cafe1" d="M1259 1046h110l20 4 17 6 15 8 9 7 7 7 7 11 5 11 4 20v16l-3 16-5 13-6 10-9 10-8 6-13 7h-2v6l13 19 13 17 16 24 7 10-2 5h-43l-7-6-13-19-7-10-20-30-4-3h-56l-3 3-1 61-4 4h-37l-4-4v-225Zm45 38-4 4v80l4 4h60l14-3 12-6 8-7 6-10 3-10v-14l-2-10-5-10-7-7-12-7-16-4Z"/><path fill="#7cb1e1" d="M573 1044h26l21 4 20 7 17 9 12 9 16 16 8 11 7 14 6 18 3 18v24l-2 15-5 18-9 19-10 14-13 13-17 12-21 10-13 4-15 3-8 1h-24l-18-3-21-6-16-8-14-9-11-9-8-9-12-19-6-13-6-20-1-9v-27l2-13 4-15 7-16 8-14 12-13 8-8 18-12 13-6 21-7Zm0 39-17 4-16 8-12 9-10 12-9 16-4 13-1 6v27l4 15 8 16 9 11 15 12 14 7 16 4 5 1h17l15-3 15-6 12-8 10-9 7-8 7-12 6-21v-26l-4-16-5-12-10-14-8-8-10-7-15-7-17-4Z"/><path fill="#ced4d5" d="M964 541h2l3 5 6 7 3 1v2l4 2 16 16v2l3 1v4l3 1 2 4v4l4 1 1-3 4 3-1 2h-2l-1 6 4 57 2 33v15l3 14 6 16 8 30 2 7 4 10 3 9 1 3v7h2l8 26v5l-3 1-8-16-16-12-4-2-1 1v8l3 20 4 6 10 9 10 8 9 7 3 1 4 6 4-1 1 3-4 1-1 7-9 23v4l2 2 39 9 7 2 4 6-1 10-2 31-5 2-7-4-4-2v-2l-3-1-3-6-2-8-5 1-4 7v15l-2 3-5-1-3-3-6-2-5-3h-2l-2 2-1-3h-2l-4-6v-7l2-12h-4l-2 6-9 16v8l2 14-4 4h-15l-5-4-6-26v-7l2-8-8 2-5 4h-2l-2 4 1 5 2 14v12l-2 3h-8l-5-5-5-19v-9l3-8 11-14 8-10h2v-2l2-1 24-2 1-1 12-1 17-3 1-5-8-12-10-13-14-18-14-18-7-9v-2l-3 1-1 7v63l-5 1-6-21-15-46-6-20-8-25 1-5 4 1 13 14 7 8 10 11v2l4-2 2-17 2-27v-6l-4-6-17-16-10-9-5-4-4-5v-10l2-1v-8h2v-4h-4v-2h4v-4h-2v-2l-2-1 4-1v2h2v-4l-3 1-1-3h2l1-4h-3l-1-3-3 2v-3h-2l-2 4-3-1 1-3 1-1-3-1v-5l2 1v2l2-1 1-3h3l1-3 3 1v-2h-4l1-8h-3l-1-4 1-4-4-1-3 9-9 23-2 6-4 1-1-1v-22l3-83 1-17 5-1 5 13 8 20 4 12 5 2 3-11 6-17v-10Z"/><path fill="#c2cace" d="m1316 687 5 1 1 1v5h2l-1 3 2 7 3 20-1 7-7 8-8 6-4 5-13 12-5 5v14l3 32 2 7 4-1 9-11 7-7 7-8 7-8 3 1-1 9-11 35-9 29-8 25-5 16h-5v-69h-4l-9 12-14 18-14 18-12 16-5 7 2 5 34 5 19 2 8 6 9 12 7 9v5h-8l-9-2-9-6-5 1 1 8-2 5v2h-2v-2l-3 2v2l4 1 1 4-1 8h-2l-1 3 2 1-2 2 1 1-1 4-3 3-7 1-10-1-2-2v-8l2-1 2 4v1h2v-5l-2-1 4-1v-2l2 1v3l2 1-4 1v3l8-1-2-6h-2v-5l4-1v-2h-2v-2l-8-1 1 2 5 1v2h-2l-1 3-6 1-2-12-12-20-3-1 2 12v5l-3 6-6 2-1 2-6 1-8 4 1 5h-3l-1-2-1 2h-2l-2-5v-16l-5-7h-4l-2 9-5 6-4 1v2l-5 3h-2v2l-5 2-2-3-1-29-1-13 2-5 3-2 44-10h2l1-6-3-8-5-14-3-6-4 1-8 10-6 7-9 11-5 6h-4v-7l9-35 10-36 4-13 2-3h4v-4h-2l-1 2v-8l2 2-1-6 1-4h2v-5l6-9 5-6 7-10 1 2h2l-1-3 6-9 4-7 9-11 5-5 7-12 5-5 5-5 4-3v4l2-2 3-3 5-2-2-2 12-4 7-2v-2l7-3 5-4Zm-58 291"/><path fill="#7db1e0" d="M1119 1044h20l19 3 24 8 15 8 13 10 7 7 1 6-18 18-7 5-6-1-9-8-14-8-15-6-10-2h-25l-17 4-17 8-10 8-7 7-8 13-5 12-3 15-1 16 2 16 4 13 7 13 8 10 9 8 14 8 13 5 9 2 15 1 18-2 15-5 11-6 9-7 9-8 6 1 16 16 6 8-1 7-12 11-15 10-18 8-17 5-19 2h-19l-21-3-21-6-16-8-10-6-13-11-8-8-12-17-8-17-5-16-2-14v-24l2-16 5-17 7-16 8-12 9-10 10-10 15-10 16-8 18-6 16-3Z"/><path fill="#ced4d6" d="m980 145 7 1 30 14 19 10 6 3 8-1 26-11 20-4 28-5 15-1 2 1v2l-3 1 3 1 1 6-3 1-1-3h-2l-1 4-2 4h3v2h4v-2l-4-1v-3l5 1v19h-3v3l2 1v-2h2l-2 4-4 1-3-3 1-4-4 4-2 4h-2l-4-9-3-9-11-1-4-2-7 1 1 6 8 12 3 4h-5l-2 4h2v-2h3l-1 6h-2l2 2 2 1v3h3l-1 4h-2v2l5 1-3 2h-2l-1 3-1-5-4-1v-2h-2l-1-3-3 1v2h-3l-2-10-1-2 1-2h-3v2l-5 5-13 15-5 7-1 3 8-2 8-3 6 1 1 5-5 1-4 2 2 6 12 2v-3l3-1 1-3 1 3v3l2 5 1 2-2 2 1 3-6 3-2-3 1-4 3-1v2l-2 1 3 1-1-5-12-3-2 1-2 5-6 9-2 5v8l8 15v4l-4 1-16-6-25-5-11-2-7-6-4-1 1 8 5 6 10 7 6 6 7 14 9 8v2l11 3 2 1 18 1 6 4 2 3v5l-6 3-2-1-1 2-17 8-16 8-9-1-14-10-8-6-8 1-5 3 1 4 4 1v5l3 1v2l4 2 5 5 7 8 6 10 6 13v2h3l1 7-4 5h-3v-4h-4l-2 6-3 2-1-5-2-1 1-4 1 2 2-1-1-3h-3v2l-3 1-1-3h2v-3l-5 1-1-4-6-2v2l-3-1-2-3-4-1-1 7h4v2h-4v9l2 1-2 6v2l-5-1-13-21-12-18-3-5 1-7 13-11 5-2v-2l7-5 4-7 8-30 2-9v-5l-3-1-9 7-3 5v13l-1 2-4-1-4-6-2-5-3-1-1-7-1-1 1-14 3-16 2-18 4-7 13-18 9-12 2-7 1-5-4-1-1 1 2 1v4l-4-1-18-13-2-3 1-1h6l4 2 8 1v2l5 1v4h2l-1-10-14-21-15-22Z"/><path fill="#cdd5d7" d="M1591 318h11l2 5-5 2-5 2h-4v2l-17 6-15 6-9 3-1 1 1 7 8 8 4 5v2l4 2 3 4-1 7-26 10-27 10h-5l-1-1 1-8 3-11v-7l-5 3-15 15-8 7-6 7-4 36-1 5h2v11l12 29 7 17 6 13 12 29 7 17 17 33 12 24h4v-50l2-3 4 1 15 27 14 26 3 9-3 1v2h4v2h-5l-2-2-2 2 2 5 2 1 1-2h4v2h-3l-1 2h-5l-2-1-2-7 2-4h-2l-1-3-5-3-5 1-4 16-4 15v13l9 42 4 21-1 4-4-1-13-14-9-11-15-16-5-9-13-29-2-7 2-2 7 1 8 2 3-1 4-21v-12l-4-6-12-10-13-10-9-7-4-1-2 21-2 2h-3l-17-32-7-12-7-15 1-4 8 1 9 4 7-1 8-16 3-6-1-9-6-21-2-6-5-5-14-10-5 1-8 7-8 7-4-1v-22l5-46 3-8 8-14 14-22 9-14 8-9 16-9 11-6 19-10 10-6 8-2Z"/><path fill="#c9dee8" d="M1747 1047h74l3 5-10 13-12 16-14 18-14 19-16 21-14 19-2 3 1 6 13 18 14 18 15 20 14 19 10 13 12 16 2 5-2 3h-73l-8-7-10-14-13-16-8-11-8-11h-6l6-8 14-19 12-15 9-12-1-7-4-5v-2h-2l-12-16-10-13-11-14v-2l6-2 14-19 10-13 14-19 5-6Z"/><path fill="#a7bac9" d="m1200 245 4 2 7 11 3 6v7l-7 16v3l6-1 16-5 15-3 14-2 6-4 7-7h6l13 10 10 9 2 3 4-3 1 1 3 22 1 8 1 8-3 6-1-2h-6l-3 1-1-3 5-1-2-5h-3l-2 5-3-3-1-3v-10l-3-7-8-7-5-1 6 31 5 16 2 5 4 2 14 11 3 2v2l4 2 3 4-1 5-13 20-11 18-6 9-4 1v2l-7 2-3 2h-2l-2 2-6 2h-4v-2l-2-1v-2l-2 1v2h2v4h-2v2l-6 2-10 6-4-1-1-6 2-7 2-7 1-8v-11l-6-9-10-10v-1h6v2h4v-2l-2-1v-2l4-1-3-6-2 2h-5v-4l2-2 1-5-3-6-3-1 2-5 1 2 7 2 1 3h-2l1 5-1 3 1 2 1-6h2l-1-5 3-1v2l8-3 17-13 3-4h2l1-5 3-1v-2h-2l-1-5 2-4v-9h4l-2-4h5v-2l-4-2v-2h4v-2l-3-1 1-3-2-12-5-1-11 7-6 7-6 12-6 7-10 6-5 2-20 1-7 6-3 11-3 5-4-1-2-7-1-7v-8l3-13-1-2h-5v2l-2 1h-6l-3-3-4-2v-2l4-1-1-7-4-4 1-5 4 3 5-4 19-11 4-5-2-11-1-9 3-8Z"/><path fill="#a5b9ca" d="m1608 317 7 1 10 5 11 7 11 6 10 6 5 5 4 11 3 5-1 4-3 1-12-7-11-6-6-1-11 1-4 2-1 2-8 1v2h-6l-2-4-2 1 2 1-1 4h-3l-1 2h-5v2l-4-1v-3l-2-1v-5l-3-1-1 3 3 1-1 3 2 1-3 2 3 1v3l-6 1-2-1v-6l2-1v-2h-2l-1 7-1 5-6 1-11 33-8 22-4 6-12 6-24 4-30 5-5 2 1 4 24 16 12 8 9 8 4 17 5 14-1 6-7 8-6 9-3 5-1 5-2-2-6-16-13-31-5-11-11-26-4-10v-9l1-2h-2l1-14 3-27 7-8 17-16 8-8 3-1 1 1v7l-4 14v5l8-1 15-6 23-8 10-4h2v-7l-4-5-5-5-9-10-2-3v-5l4-3 20-7 15-6h4v-2l13-4-1-5Z"/><path fill="#7db1e0" d="M1499 1046h36l4 4v225l-4 4h-36l-4-4v-225Z"/><path fill="#c3cacf" d="M964 541h2l3 5 6 7 3 1v2l4 2 16 16v2l3 1v4l3 1 2 4v4l4 1 1-3 4 3-1 2h-2l-1 6 4 57 2 33v15l2 13-2-1v-2l-3-1-2-3-6-2v-5l-2-5-3-1-3 3 4-2-2 5-9-2-20-10-5-4-4-1-2 8-3 1-1-3h2l1-4h-3l-1-3-3 2v-3h-2l-2 4-3-1 1-3 1-1-3-1v-5l2 1v2l2-1 1-3h3l1-3 3 1v-2h-4l1-8h-3l-1-4 1-4-4-1-3 9-9 23-2 6-4 1-1-1v-22l3-83 1-17 5-1 5 13 8 20 4 12 5 2 3-11 6-17v-10Z"/><path fill="#a7baca" d="M1302 431h3l4 7 4 10v2h-4l4 28 1 8v16l1 3-3 1v-8h-4l-1 2-4-1-3 1 1 4h-5l-1 1 4 2-4 9-3-1-1 10-3 6-3 13-4 15h-3l1 4-1 5-2 2v7l-5 1-4-9v-6h-2l-8-21-4-8-1-2-1-8-7 4-11 16-7 10-10 15-7 10-7 11-10 15-8 12h-2l-1 5-4 4-4 9-13 19-2 2-3-1-2-2-1 4h4v3l-4 3v-2h-2l1 4-3 1v2l-3-1 1-5-3-1-1-7 2-3v-6h-2v-5l2 1-2-9v-4h2v-2l-2-1-1-28-2-4 8-2 18-13 17-12 19-14 10-7 21-14 14-10 4-2 2-5 7-11 12-21 14-23 7-13 7-11 1-3Z"/><path fill="#cfe0e9" d="M1133 151h6l2 1v2l-3 1 3 1 1 6-3 1-1-3h-2l-1 4-2 4h3v2h4v-2l-4-1v-3l5 1v19h-3v3l2 1v-2h2l-2 4-4 1-3-3 1-4-4 4-2 4h-2l-4-9-3-9-11-1-4-2-7 1 1 6 8 12 3 4h-5l-2 4h2v-2h3l-1 6h-2l2 2 2 1v3h3l-1 4h-2v2l5 1-3 2h-2l-1 3-1-5-4-1v-2h-2l-1-3-3 1v2h-3l-2-10-1-2 1-2h-3v2l-5 5-13 15-5 7-1 3 8-2 8-3 6 1 1 5-5 1-4 2 2 6 12 2v-3l3-1 1-3 1 3v3l2 5 1 2-2 2 1 3-6 3-2-3 1-4 3-1v2l-2 1 3 1-1-5-12-3-2 1-2 5-6 9-2 5v8l8 15v4l-4 1-16-6-25-5-11-2-7-6-5-6 1-5 5-5 5-1 3 1v2l10 2 12 5 6 1-2-7-8-14-2-2h-6l-7 5h-6l-2-2 1-5v-8l-2-4-1-13-1-11 5-2h2v2h2v-6h-2v2l-2-1v-5h-2v2l-4-1 4-3h6l3 7 3 4v2l2 1v-2l5-1-4-4v-1h6v-2h-7v3l-5-1 1-6h2v-6h3l-1 4 5 2-1-6h-2v-2l-3-1-3-4v-2l-4-2-2-2-7-4-5-5-4-3-6-4-1-3h8l19 10 14 7 8-1 26-11 20-4 28-5Z"/><path fill="#c4cbcf" d="m1455 542 8 1 9 4 7-1 2-1 2 6 7 3 1 2h5l3 3 9 3 4 2v4h4l1-3 3-1 15 29 13 26h4v-50l2-3 4 1 15 27 14 26 3 9-3 1v2h4v2h-5l-2-2-2 2 2 5 2 1 1-2h4v2h-3l-1 2h-5l-2-1-2-7 2-4h-2l-1-3-5-3-5 1-4 16-4 15v13l9 42 4 21-1 4-4-1-13-14-9-11-15-16-5-9-13-29-2-7 2-2 7 1 8 2 3-1 4-21v-12l-4-6-12-10-13-10-9-7-4-1-2 21-2 2h-3l-17-32-7-12-7-15Z"/><path fill="#a8baca" d="m1021 721 3 3 6 9 9 11 14 19 8 11v2h2l8 11 4 8 10 37 11 43v7h-4v2h6l2 8h-2l-1 3-3-1v-2h-2v4h8l1-2 3 9 4 16 11 21 7 18-1 9-6 10-4 5-2 1h-14l-5-5-8-18 1-2 3 3 7 3 5 2 3-1v-20l2-15v-6l-3-4v-2l-7-1-39-9-4-4 2-5 9-24 1-4 3-2-5-1-3-4v-2l-5-1-10-9-10-8-10-9-2-4-3-20v-8l3-2 15 11 6 5 6 13v2l2-1-1-9-6-19v-3h-2l-2-10-3-9-4-10-2-7-6-22-5-17Z"/><path fill="#e8f0f3" d="m1135 304 1 2 6-1v42l-1 8 1 5v16l1 18-3 3h-7l-14-4h-7l-9 1-4-4-4-1 1 7 7 12 7 6 11 7 13 11 1 2v10l-5 6-24 11-9 4-6-1-18-11-2-2 1-5 16-2 1-4-17-4-8-3-4-4-1-4 4-4 16 3h7l-1-3-23-10-2-2v-6l8-16 2-3h4l-1-6h3v-2h4l1-2-4-1 2-5 4-2 2-5 3 1v2h2l-1-4-3-3 2-5 5-1 5-1 2-4h4v-3l-4 1v-4l3-1-2-7 4 1 3 4 2 1 1-6-1-4 3-1-2-6 5-1 2-4 5-4 3-1 4-4Z"/><path fill="#c2cace" d="M1309 450h4l6 15 12 31 11 29 5 14-1 4-5-2-15-13-4-2-2 4-1 11-7 8-8 7-6 5-7 8-12 12-4-1-3 7-6 6-5 3-11 8-2-4h-2l-2 4-4-2 1-3-5-2 2-1v-4h-2v2h-2l-1 3-2-1-1 2h-2l-1 4h-3v-2h2v-4l1-1-5-1-1-2-2 1 1 3 4 1-3 3-2-4h-3v-2h-6v-2l3-3-4-3-2 2-4-1 7-11 12-17 7-11 10-14 6-8 3-2h3l2 4v5l4 6 8 22 3 3v5l2 3 1 5h4v-7l3-3v-9h2l6-21 2-9 2-4 1-12 4 3 3-8-4-2 4-2 3 1-1-4 4-2v2h3l1-3 4 1v8l2-2-1-4v-14l-3-23-1-4Z"/><path fill="#cbdae1" d="m1232 906 39 6 19 2 8 6 9 12 7 9v5h-8l-9-2-9-6-5 1 1 8-2 5v2h-2v-2l-3 2v2l4 1 1 4-1 8h-2l-1 3 2 1-2 2 1 1-1 4-3 3-7 1-10-1-2-2v-8l2-1 2 4v1h2v-5l-2-1 4-1v-2l2 1v3l2 1-4 1v3l8-1-2-6h-2v-5l4-1v-2h-2v-2l-8-1 1 2 5 1v2h-2l-1 3-6 1-2-12-12-20-3-1 2 12v5l-3 6-6 2-1 2-6 1-8 4 1 5h-3l-1-2-1 2h-2l-2-5v-16l-5-7h-4l-2 9-5 6-4 1v2l-5 3h-2v2l-5 2-2-3-1-29-1-13 2-5 3-2 44-10Zm26 72"/><path fill="#ced4d4" d="M1262 724h5l3 5 10 18 7 15 2 11 4 40 2 7 4-1 9-11 7-7 7-8 7-8 3 1-1 9-11 35-9 29-8 25-5 16h-5v-69h-4l-6 8-6 2-1 3-3-1 1-6v-5l-6-1h-5l-2-2v-9l2-16-1-2-4 1-12 9-6 5-4 4h-2l1-10 6-19 1-5 3-9 2 1v-3l1-4h2v-3l-2-1 2-4 3-15 6-16Z"/><path fill="#cedee7" d="m1104 170 9 3h6l3 7 4 10v2h2l2-6 4-2v5l5 2 1-2 2-1v81l-4 7-11 8h-2v2l-7 6h-8l-13-8-9-5-1-3v-7l2-9-1-10-1-3-5-1-2 2 1-4 3-1 11 3 1 1v5l-4-1 3-1v-2l-3 2 1 5 5-2-1-4 2-2-3-4-1-4v-1l-2 1v4l-11-1v-2h-2l-3-7 9-3v-3l-6-1-10 4h-6l1-5 13-15 8-10h2v-2h3l2 9v5h3v-2l4-2v4l6 2 2 2h-2l1 2 5-3-4-1v-2h2l1-4h-3v-3h-4v-3h2l1-6h-3v2h-2l2-5 2-1 2 2-6-9-6-9 1-5Z"/><path fill="#d2e4ec" d="m1035 523 4 2 14 21 11 16 10 15 12 19 8 12 7 11 4 5 2 6 1 2h-2l1 3 4-1 1 2h-2v2h-2v2h2l-1 2-5 2v-5l-4-3h2v-4h-2v2h-2l-1 6h-3v-2h-6v2h-3l-1-4-3-1 1-5h-2v5l-4-2v-5h-2v2l-4-2v-2h-2l-3-6-2 4-9-6-13-10-1-3-5-1-3-3v-2l-8-2-3-3v-2l-4-1-6-5v-4l3-1 2 1v-2l-3-1 3-5 2-2v-9l6-14 8-24Z"/><path fill="#cadde7" d="m1472 368 5 1v45l-3 27-1 5h2v11l12 29 7 17 6 13 12 29 7 17v3l-3 3h-4v-4l-4-1-10-4-2-2h-6v-3l-7-2-2-3v-6l9-19-1-9-6-21-2-6-5-5-14-10-5 1-8 7-8 7-4-1v-22l5-46 3-8 8-14 14-22Z"/><path fill="#c2cace" d="m1529 727 9 1v2l6 1 4 2v2h2v-2l4 1 1 4 9 3 4 1v-2h2l1 7-8 14-17 28-10 16-4 5-16 11-13 8-4 2-4 4-15 10-10 7-3 2-5-1-2-7-2-15v-6l3-3 11 1 23 4 3-2 4-26 2-15 3-11 5-9 3-4h2l1-5 6-20 2-5Z"/><path fill="#a7bac9" d="m1012 592 3 1 10 15 15 23 20 30 9 14 11 16 8 12 8 12 16 23 14 22 10 15v4l-12-3v-2l-3-1-1 5-2-1-2-3-5 2-4-2-1 4-6 1v-3h-2v-6l-4-2-1-6-1 2-3 1 3 3 2 5 2-1 2 5 5 6 2-3 3 1v6l-3 1-1 2-8-11-9-12-11-26-11-25-10-25-7-16-7-17-5-10-10-26-3-10-3-3-4-10-3-1-3 1 1-6Z"/><path fill="#c2cacf" d="M1377 679h5l9 10 11 12 11 12 4 6-2 5-26-1-1 5 8 26 10 33 2 3h3l12-20h5l3 8 4 17-1 7-7 6-20 13-13 9-7 5-5-2-3-3 1-2h2l-1-7-2-34-1-3v-4l1-8h-4l-2-4h3v2h3l-2-10-1-2h2l-1-12v-11l-3-4 2-3 1-9Z"/><path fill="#ced5d7" d="m902 680 4 1 1 1v45l1 5-1 3v12l-1 5h2l-1 3-1 5-2 45v23l1 3-5 4-4-1-33-22-12-9-2-3 1-8 4-19 3-3 4 2 12 17h4l8-26 6-18 5-17-1-5-4-1-21 1-2-3 1-4 7-8 12-13Z"/><path fill="#7cb0e0" d="m1200 245 4 2 7 11 3 6v7l-7 16v3l6-1 16-5 15-3 14-2 6-4 3-3h4l1 7-3 5-4 4-10 7-5 6-6 12-6 7-10 6-5 2-20 1-7 6-3 11-3 5-4-1-2-7-1-7v-8l3-13-1-2h-5v2l-2 1h-6l-3-3-4-2v-2l4-1-1-7-4-4 1-5 4 3 5-4 19-11 4-5-2-11-1-9 3-8Z"/><path fill="#ced5d6" d="m1191 353 5 1 4 7 2 1 7 14 3 5v2h2l11 21-1 5-4 3-21 9h-2l1 3 13-1 11-1 2 3-1 5-4 4-22 6h-3l1 4 15 1 3 1 1 5-14 9-9 5-7-1-25-12-8-4-2-3v-12l4-5 13-9 11-7 5-5 6-12 2-9-4-2v-4h2l2-26Z"/><path fill="#ced4d4" d="m1139 461 9 1 30 10 15 6 2 3-1 6-4 9-5 5-16 6-24 10h-6l-29-12-13-6-5-6-3-8 1-6 5-3 40-14Z"/><path fill="#a7b9ca" d="m907 722 2 3 6 15 8 24 2 8 3 10 4 10 5 18 3 7 11 34 5 18 1 7 3 7v6l-2 1-8-7-2-3h2v-2l-5 1-6-7-9-7-14-14-7-6-5-5-6-4 5-4 1-2-1-2v-23l2-45 1-6 2-2h-2v-18l2-6-2-1Z"/><path fill="#bac4cc" d="m1196 660 2 2v4h4l1 5-3 1 2 3h2l1-5 1-4h2v-5l6 1 1 2h3l2 1v3h-6l-2 8h-2v-2h-3l-1 2h-2v2h6v3l-6 1v4l2 1-4 1 1 3-4 1-5-2h-4l2 6 6 2-2 3-5-2-1 2 4 1v2l-2 2-2 5-5 7-5-1v3l2 1h-2v3l-4-1-2-1v4h4v2h-6v2l3-1-1 5-1 2h-3l1 3-3 1v4l-4 1v3h-4v2h2l-1 4-4 1-2 2-6-1-1 4h2v2h-4l-1-3-3 1 2-6h-2v-4h4v6h2v-2l2-1-2-3h2v-2h2v-8h-3l-1 4 3 1-3 1-1 2-1-6h-2v4h-2v-5h2v-3l-3-1-1-9-2-2v-5h2v3h4v-2h-2v-32l2-2-1-6 1-2 3-1 4-5 3-1 3 1 1-2h2l2-6 3-1 3 5 6-1 5-1 2-4 3 2 3-1 1 3 5 2 1-2h2v-2h-6l-1-2h3l1-2h3Z"/><path fill="#cadde7" d="m1041 908 9 1 4 1v2h2v-2h2l1 3-3 1-5-1-6 11-6 11-12 22v8l2 14-4 4h-15l-5-4-6-26v-7l2-8-8 2-5 4h-2l-2 4 1 5 2 14v12l-2 3h-8l-5-5-5-19v-9l3-8 11-14 8-10h2v-2l2-1 24-2 1-1 12-1Z"/><path fill="#ddeaf1" d="m1135 304 1 2 6-1v42l-1 8 1 5v16l1 18-3 3h-7l-14-4h-7l-9 1-4-4-4-1v5l-2-4-3-4 3-2v-8l-3-1v-4l-2-1v4l-2-1v-4l-2-1 1-3 7 3v-2h2l-1-4v-8h-3v2l-3-1 2-4 9-1 2-4h4v-3l-4 1v-4l3-1-2-7 4 1 3 4 2 1 1-6-1-4 3-1-2-6 5-1 2-4 5-4 3-1 4-4Z"/><path fill="#a8bbcb" d="M1377 915h11l19 7 8 4 4 5 8 15-1 5-7 2h-8l-6-5-8-10-4-5-4-1 1 13 2 5v6h-4l1 5-1 3h-4v2l3 1-1 4-3 1-1 3h-11l-7-4v-3h-2l2 6 2 1-6-1-1-2-1 3h-10l2-4-4-1-2-1v3l4 1-1 1h-9l-3-4 2-6 2-1 1-3h2l-1-7-1-3h2l2-4 1 6 3-4v2l9-1 3 1-1-3-5-1-1 2h-3v-2l-8-2-3-2-2-6-3-3v-2l-4-1 1-5 5-2 29-6Z"/><path fill="#a7b9ca" d="m1375 724 2 4-1 3 2 4v25l1 10h-3v-2h-3l2 1v3h4v8l1 4v3l2 39v2l-2 2v2l5 2v3l-13 10-3 3h-5l1 3-5 4-2-1v-2l-2 1v2l2 1-1 3-7 6-10 1h-2v3l1 5h-3l-2-2h-2l-1 2-2-8 3-1v-3l-2-1 2-4 2 1-1-8 4-11h2l1-5 4 1v-3h-2l-1-3 3-1v2h2v-5l-3-3 3-2v2h2v4l4-1-3-2-1-4-1-1-1-2v-8l8-26 12-36Z"/><path fill="#c2cace" d="m1285 347 6 1 17 14 2 1v2l4 2 3 4-1 5-13 20-11 18-6 9-5 2-12-4-25-7-3-4 3-9 12-24 9-10 11-12 4-2 2-4Z"/><path fill="#c9dee8" d="m970 450 5 1-1 12-4 27v4l6-4h2l4 8 12 11 5 4-1 4v6h-2l2 9 7 31 3 12-1 5-4-1-5-3-7-8-11-11-2-1v-2l-4-1-7-8-1-4h-2l-2-12-4-1-5 1-2 5-10 9h-4v-6l13-34 7-18Z"/><path fill="#7cb0e0" d="m1082 245 5 1 3 8-1 10-1 5v16l2 2v9l4 11 6 20v12l-2 9h-5l-3-10-4-6-5-3-18-1-11-4-8-7-6-7-6-12-9-8-8-6-3-4v-8l5 1 6 5 16 3 20 4 16 6h4l-3-7-6-12v-8l5-10Z"/><path fill="#e2ebf1" d="M1133 151h6l2 1v2l-3 1 3 1 1 6-3 1-1-3h-2l-1 4-2 4h3v2h4v-2l-4-1v-3l5 1v19h-3v3l2 1v-2h2l-2 4-4 1-3-3 1-4-4 4-2 4h-2l-4-9-3-9-11-1-4-2-7 1 1 6 8 12 3 4h-5l-2 4h2v-2h3l-1 6h-2l2 2 2 1v3h3l-1 4h-2v2l5 1-3 2h-2l-1 3-1-5-4-1v-2h-2l-1-3-3 1v2h-3l-2-10-1-2 1-2h-3v2l-5 5-2 2h-3l-2-9-4-1v-2h2l1-3 7-6-1-9-3-6h-5l-8 11-4 6-5 2 1 3-3-1v-2h-2v-2l6-1 1-6-7-3h-6l1 5h-3v-2h-3l-1 2-9-1-1-3-4-2-2-2-7-4-5-5-4-3-6-4-1-3h8l19 10 14 7 8-1 26-11 20-4 28-5Z"/><path fill="#8ab3d8" d="M1404 1349h7l7 6 11 14 13 16 2 3 4 1 1-37 3-3h8l4 4v63l-4 4h-7l-6-4-14-17-13-16h-4l-1 33-4 4h-7l-4-4v-63Z"/><path fill="#88b4d9" d="M1175 1349h6l6 4 8 10 12 15 8 10h3l1-2 1-33 4-4h7l4 4v63l-4 4h-7l-8-7-7-8-9-11-9-11h-4l-1 33-4 4h-7l-4-4v-63Z"/><path fill="#88b4da" d="M1255 1349h35l14 5 10 9 5 7 2 7v16l-5 12-5 6-10 6-10 3h-36l-4-4v-63Zm15 13-3 3-1 12v13l1 15 4 3h11l11-2 8-6 5-10v-11l-4-9-8-6-7-2Z"/><path fill="#85b2db" d="M807 1349h7l8 7 13 17 11 13 1 2h5l1-35 4-4h7l3 3 1 3v50l-1 12-3 3h-8l-8-7-14-17-10-13-5-1-1 34-4 4h-7l-4-4v-63Z"/><path fill="#c1c9ce" d="m1316 687 5 1 1 1v5h2l-1 3 2 7 3 20-1 7-7 8-8 6-4 5-13 12-5 5-1 6h-1l-2-11-8-16-9-17-2-4-6-1 2-4 4-4 5-5 4-3v4l2-2 3-3 5-2-2-2 12-4 7-2v-2l7-3 5-4Zm-56 37"/><path fill="#a6b9ca" d="m1289 830 5 1-1 69h5l-3 8-1 5 1 4-5-2-25-3-28-4-3-4 2-5 10-13 16-21 13-17 12-15Z"/><path fill="#a7b9ca" d="M992 830h3l15 20 12 15 10 13 12 16 5 8-1 5-7 2-11 2-12 1-1 1-26 2-1 2-2-9-2-6 4-1v-68Z"/><path fill="#88b2d9" d="M888 1349h34l12 4 9 6 6 7 3 8 1 4v14l-4 11-6 8-10 6-9 3h-36l-4-4v-63Zm15 13-4 4v38l4 4h15l9-3 6-5 5-10v-11l-3-7-4-5-7-4-4-1Z"/><path fill="#abbcca" d="m1459 472 4 1 16 11 4 5 6 23 2 6v6l-10 21-4 3-7-1-10-4h-5l-2 2v-3h-2l-2-5 1-3v2h2l-1-4h-4l-1-7v-5h-2l1-2h7v-2l-5 1-5-5-1-9h-2l-3-8-1-4v-9l1-7h1l1 12 4-1 13-12Z"/><path fill="#cadce6" d="m1267 286 5 1 2 5 1 9-1 2 2 1v2h-4v2l3 1 1 3h-5v2l3 1-1 4-1-3h-3l1 9-2 4v5h2v2l-3 3-1 3h-2l-2 4-11 9-7 5h-7l-33-14-8-3-2-3 1-5 8-7 20-1 12-6 6-5 6-10 4-8 9-8Z"/><path fill="#c9dee9" d="m1653 1349 6 1 8 7 10 13 12 14 4 6 4-1 1-37 3-3h7l4 4v63l-4 4h-6l-8-7-9-11-9-10-9-11h-4v34l-5 5h-6l-3-3-1-13v-46l2-6Z"/><path fill="#8ab3d8" d="M472 1349h31l10 3 6 4 6 7 2 6v13l-3 6-4 5-3 3v6l10 13-1 5h-11l-5-4-10-14-2-1h-11l-3 3-1 12-4 4h-7l-4-4v-63Zm15 13-4 4v18l3 3h19l6-5 2-4-1-8-6-7-3-1Z"/><path fill="#c2cace" d="m1455 542 8 1 9 4 7-1 2-1 2 6 7 3 1 2h5l3 3 9 3 4 2v4h4l1-3 3-1 15 29 10 20v3l-5-1-2 1 1 7 1 4-2 1v-2h-3l-1-10-4-6-12-10-13-10-9-7-4-1-2 21-2 2h-3l-17-32-7-12-7-15Zm87 74"/><path fill="#c0c8cd" d="m1142 275 7 1 9 7 5 2 4 5 7 1-5 5-4-3 1 5 3 3 1 9-5-1 1 2 5 3 1 1h8v-2l5-1 2 5-3 11v8l2 13 4 1 2-4 2-6 2 1v2l5 1 20 8 16 7 6 1-3 2h-4v-2l-2 2v4h-2v8l-3-4 1-8h2l-1-2-5-2-3-1-2 3 4 1 3 7-2 6h-2l2 3 4-1 2-1 2 7-3 3 1 3h-4v-2h-6v-2h-2v-2h2v-3l-4-1-1-1-1 2h-3l-1 4-3-6-7-12v-3l-3-1-4-7h-4l-2 24-2 3 1 4 2 1v6l-1-4-4 1-2 3h-2l1-8-2-3-2-3-5-38-2-18-4-5-16-11-6-4-3-4-1-18Z"/><path fill="#c9dee8" d="M1596 1349h6l4 2 1 2 1 15 4 2 9-7h5l4 4 1 5-4 5-7 5-1 3 4 4 7 4 1 6-5 6-7-1-5-3-6 1-1 14-4 4h-6l-4-4-1-14-1-2-5 1-8 5-6-1-4-5 1-7 10-6 1-3-4-4-8-6-1-5 4-5 5-1 10 6 4-1 1-1 1-14 3-1Z"/><path fill="#8cb3d7" d="M1108 1349h45l4 4-1 7-3 2-30 1-3 3v8l3 3 27 1 3 4v5l-3 3-27 1-3 3v10l3 3h30l5 3 1 6-4 4h-47l-4-4v-63Z"/><path fill="#86b2da" d="M970 1349h45l4 4v5l-4 4-31 1-3 3v8l3 3 26 1 4 4-1 6-2 2-10 1h-17l-3 3v9l2 3 11 1h13l9 1 4 4-1 6-3 2h-46l-4-4v-63Z"/><path fill="#88b1d9" d="M1338 1349h45l3 3v6l-4 4-30 1-3 3v8l3 3 26 1 4 4-1 6-3 2-26 1-3 3v10l3 3h26l8 2 2 3-1 6-3 2h-46l-4-4v-63Z"/><path fill="#89b3d9" d="M1036 1349h33l11 4 7 6 4 8 1 4v9l-4 9-9 8-9 3-19 1-3 3-1 12-4 4h-7l-4-4v-63Zm15 13-4 4v18l4 4h12l8-2 6-7v-9l-5-6-4-2Z"/><path fill="#8cb3d7" d="M545 1349h45l3 3v7l-3 3-31 1-3 3v8l3 3 26 1 4 4-1 6-3 2-28 1-1 3v10l2 2 9 1h22l5 5-1 6-3 2h-45l-4-4v-63Z"/><path fill="#c2cace" d="m1267 196 4 1-2 6 3 8 11 16 12 16 7 11 4 29-1 5-3 3-3-3-5-5-11-10-6-4-5-1-1-7-5-4h-6l-20 9-5 2-5-1 1-5 9-17 3-3 6 1 9 5 4-1 2-4h-2v-3h-2l1-3h2l1-3h-2v-5l-5 2v-3h2l2-4h3l2-10-3-3-2-1 1-6 4-1 1-3h-5v-2Z"/><path fill="#87b2da" d="M632 1349h9l5 4 11 24 7 14 8 18 3 7-3 4h-9l-5-6-4-7-3-2h-28l-4 3-5 10-3 2h-8l-3-5 13-30 8-18 8-16Zm3 21-3 5-5 11 1 5 2 1h14l2-2-1-7-6-12Z"/><path fill="#a7b9ca" d="m1214 872 4 1 4 9 6 18 1 4-4 4-44 10-3 1-1 11 1 7 1 29 2 2 4-1v-2l5-3h2v-2l7-4-2 6-8 18-3 3h-15l-5-5-7-10-1-2v-11l4-11 12-21 4-11 2-8 1 4 4-1 9-11 9-11 6-7Z"/><path fill="#cee0ea" d="M1023 293h5l6 6 7 14 9 8v2l11 3 2 1 18 1 6 4 2 3v5l-6 3-2-1-1 2-17 8-16 8-9-1-14-10-5-4-2-5 1-7 5-4 6-4 1-5-8-24Z"/><path fill="#c9dee9" d="M1806 1349h9l2 2-1 4-10 14-8 10-1 6 6 9 10 13 6 8-2 5h-11l-5-4-11-16-5-1-4 4-11 15-4 2h-8l-2-2 1-5 14-20 4-6v-6l-12-17-6-8v-5l2-1h9l6 5 10 13 5 1 8-10 6-8Z"/><path fill="#ced4d4" d="m899 914 8 1 43 9 3 3-2 4-29 12-20 7-6 2-3-2 1-8 2-8-1-2-4 2-11 13-4 5-6 2-11-1-2-3 1-6 8-15 6-5Z"/><path fill="#a7b9ca" d="m958 527 5 2 2 14 3 36v10l-10 28-5-1-3-8-8-20-6-15v-3l-5 1v-17l3-7 2-7 1 3 5-2 8-7 3-5Z"/><path fill="#a7baca" d="m1568 689 3 4-1 2 4 3 1 3 5 2 13-8 5-3 5 1 2 4-1 18-3 20-5 30-3 11-4 1-4-8-6-17-2-6h-6l-1-6h-2v2h-2l1-7h4l-2-13-5-26v-2h2v-4Z"/><path fill="#acbcca" d="M946 655h5l-1 7 1 2 2-3 1 7-2 4h4v2h-3l-1 2-3 1v3h-3l-1-2-1 4h4v2h-2v3l3-1 1-2h2l1 2 2-2 1 4h3l-1 4h-2l2 2h2v4h-2v-2l-3 1 1 3 3-1-1 5h-4v2h4v4h-2l1 6-1 3h-2l1 4v8l3 1-1 3-2 1-7 24-3 2h-3l-9-28-5-17-2-6v-18h6l2-9Z"/><path fill="#d0e1ea" d="M932 570h4l5 13 8 20 4 12v3l4 2 1 2-3 11-3 4-5 16-3 9-10 25-2 6-4 1-1-1v-22l3-83 1-17Z"/><path fill="#cbd1d2" d="m1348 571 5 1 3 79 1 29v14h-5l-10-28-13-36-1-8 12-31Z"/><path fill="#c2cacf" d="m1011 342 7 1 11 9 11 8 3 2v2h2l3 11 3 7 2 8 3 2-9 12-3 6-5 4-18 6-17 5-6-2-2-4 4 1-1-4 2-4-2-6v-5l5 1v-2h-4l-1-5h2v-2l5 1 4 4v-2l4 1 3 3v2l5-2 1 2-1 2h-2l2 2h2v-2h3l2 4-4-1-1 3 3 1 1 4 2-5h2v-2h4v4l3-1-1-2 4-2v-7h-3l-8-16-8-13-7-6-6-7-2-1v-5l-5-1-1-4 6-4Z"/><path fill="#bfc8ce" d="m907 722 2 3 6 15 8 24 2 8 3 10 4 10 5 18-1 5-8 1v2l2 1v2l-6-2-1-2-1 5-2 2-1 3-10-4 1-5 1-2-5-1 1 1-1 5 2 5h2l1 5h-5l1-2-1-1v-3l-2-1-1 2v-21l2-45 1-6 2-2h-2v-18l2-6-2-1Z"/><path fill="#cfe0e9" d="M1591 318h11l2 5-5 2-5 2h-4v2l-17 6-15 6-12 4-3 3h-3v-3l-9 6-3 2h-34l-2-1 1-5 15-8 14-8 11-6 10-5 5-1Z"/><path fill="#a7b9ca" d="m1417 720 2 2 7 30 3 15-1 4-5-1-2 5-10 16-4-1-3-7-15-48-2-7 1-5 1-1h10l16 1Z"/><path fill="#ced4d4" d="m1233 912 5 1v2h10l15 9 5 2 9 6 9 4-3 3 1 8-2 5v2h-2v-2l-3 2v2l4 1 1 4-1 8h-2l-1 3 2 1-2 2 1 1-1 4-3 3-7 1-10-1-2-2v-8l2-1 2 4v1h2v-5l-2-1 4-1v-2l2 1v3l2 1-4 1v3l8-1-2-6h-2v-5l4-1v-2h-2v-2l-8-1 1 2 5 1v2h-2l-1 3-6 1-2-12-12-20-3-1 1 12-1-2h-2v-7l-2-2-2-2 2-3v-3h-2v-2h-2l-1-4 2-6-3-1Zm25 66"/><path fill="#c3cacf" d="m1025 833 5 5 14 12 11 9 6 3 4 6 4-1 1 3-4 1-1 7-9 23v4l1 2h-9l-1-7-10-14-14-18-14-18-2-4 6-4h2l-2 6-2 1 3 1v-2h3l1 4 2 1v6l3-1h2l-3-2-1-5 3-1h1v-4l-5 1-2-1v-4l4-1 4 3 1-5-2-3Z"/><path fill="#a7baca" d="m867 718 3 4 24-1 3 3-1 7-6 19-10 33-3 7-5-1-12-17h-4l-1-2 6-28 3-12 2-4Z"/><path fill="#a7b9ca" d="m952 925 2 1-1 5-6 11-1 2v12l2 11v5l-3 3h-44l-5-6-4-12v-9l4 3 9-3 24-9 22-9Z"/><path fill="#cadae2" d="M1473 446h2v11l12 29 7 17 6 13 12 29 7 17v3l-3 3h-4v-4l-4-1-10-4-2-2h-6v-3l-7-2-2-3v-6l9-19-1-9-6-21-2-6-5-5-14-10-6 1 1-4 5-1 2-4v-3l3-4h4l1-10Z"/><path fill="#e6eef3" d="m1107 472 7 1 6 2 2 2 6 1v-2l-4-1h19l-1 20 2 1h-2v4l4 1v3h-2v-2h-2l2 4h-2v7l-2 2h-6l-24-10-13-6-5-6-3-8 1-6 5-3Z"/><path fill="#89b2d8" d="M1476 1349h54l4 4-1 7-3 2-16 1-3 3v50l-4 4h-7l-4-4-1-50-3-3-15-1-4-4v-6Z"/><path fill="#cdd5d8" d="m979 431 4 1 9 15 17 28 9 15 5 9-1 7-5-1v-3h2l1-2h-2v-2h-2l-1 4-4-8-7-3v-3l-4-1-5-7-7-5-4 1-5 17-1-3-6 4h-2l-1-6 5-31v-6l-3-1 1-5 5-12Z"/><path fill="#82b1dc" d="m1004 295 4 2-1 9-7 28-3 10-4 5-5 4h-2v2l-8 6-8 6v-3l1-4h-3v-12l3-20 2-15 3-11 2 1 1 7 3 3 4 5 2 4 3 1v-15l4-6Z"/><path fill="#84b1db" d="M687 1349h7l3 3 1 27v25l3 3 29 1 4 4-1 6-3 2h-44l-3-3v-64Z"/><path fill="#cddfe9" d="m1113 320 1 4 4 4-1-5 5-3h2v2h2v2h6l-1 4-5-1-2-1-1-1-1 5h-2v3l4-1 2 6v4l3 1-1 5h-3l-1-4h-2l-1 2-7-4-2 3 3 3-1 4h-2l-1-3 1 6-3 1v8h3v2l5-1 5 5v2h2v2h-4l-1-2-1 2h-2v2h4v2h-2v2h-2l2 5-6 3v-2h-8l-1 5 11-1 6-1 1 3-12 2h-6l-4-4-4-1v5l-2-4-3-4 3-2v-8l-3-1v-4l-2-1v4l-2-1v-4l-2-1 1-3 7 3v-2h2l-1-4v-8h-3v2l-3-1 2-4 9-1 2-4h4v-3l-4 1v-4l3-1-2-7 4 1 3 4 2 1 1-6-1-4 3-1-2-6Zm5 62"/><path fill="#79b0e2" d="m1460 473 5 1 15 11 3 4 6 23 2 6v6l-10 21-5 1-2-1v-2l-3-1-1-6v-7l-3-5-1-9-8-36 1-5Z"/><path fill="#ced4d6" d="m1089 337 3 3 2 9 2 2-7 1-2 6 3 2v4h-2v-2h-3l-2 4-4 3-1 4 3 1-2 4-3-2v2h-3l1 6-4 1-2 2-1-4-6 4-4 4-5-1-4-14-3-8v-4h-2v-2l-4-2 2-1h6l31-15h2v-5l2 1 1 2 5-2Zm7 12"/><path fill="#ced4d4" d="M1286 349h6l16 13 2 1v2l4 2 3 4-1 5-13 20-11 18-4 4-3-2-1-4 1-4-1-2v-43l1-12Z"/><path fill="#cadae1" d="M1309 450h4l6 15 12 31 11 29 5 14-1 4-5-2-15-13-7-8-1-2v-6h-2v-3l-4-2 2-3-1-4v-14l-3-23-1-4Z"/><path fill="#7aafe1" d="m971 630 6 2 10 6 5 5 4 10 13 40v7h-3l-9-10-9-11-9-10-8-10-2-4-1-13v-10Z"/><path fill="#9bc" d="m992 350 4 1 1 2v7l-1-4-4-1v3l3 1-1 5h2v-2h2v9l1 13-1 4 1 2-2 13v3l1 8-2 2h-3l-14-23-8-11-4-7 1-7 13-11 5-2v-2l5-2Z"/><path fill="#77afe4" d="m1310 631 5 1 1 5-1 17-4 6-13 16-8 10-9 11-5 2-1-5 12-38 4-11 3-4h2v-2Z"/><path fill="#eaf1f3" d="m970 450 5 1-1 12-6 38-3 11h-3v2l3-1v6l-3 6h-4l-1 4h-4l-2 5-10 9h-4v-6l13-34 7-18Z"/><path fill="#79b0e2" d="m1511 372 2 1v7l-5 16-5 12-7 10-14 21-4 5h-4v-12l3-27 7-8 17-16 8-8Z"/><path fill="#7cb0e0" d="m1259 801 4 1 1 5-4 25-4 6-10 8-14 12-6 5h-4l-1 2v-2h-2l-1-4 3-2 2-5 4-7 8-20 5-9 7-6 11-8Z"/><path fill="#c7cdd1" d="m1108 725 4 2 4 8v4h3l1-3 9 2 4 1 3 1v-2l4-1v3h2v-2h2v3h-2v5h2v-4h2l2 4 2-1-2-1 1-4h3v8h-2l-1 3 2 2-3 1v2h-2l-1-5-3-1v4h2l-1 4-1 2 4-2v4h4v-2h-2l1-4h6l2-1v5l-2 1v3l-5 8-3 2-3 7-1 2h-2l1 3-3 1-1-5-2-1-6 1v2h-2l-4-8h5l7 3-3-7-10-15-12-19-6-9 1-3Z"/><path fill="#e3edf2" d="m1028 560 2 1v4l3 1-1 4-5 1-3-3-3 1 4 6 8-4 7-3 4 1-2 3h-2l1 4-1 2h5l1-2h3l-1 4h2l4 5v4l2 1 1-3 2 5-11 3v2l-6 3-2 1v-2h-2v3l4 1 2 3h2l2-8 2-1 4 1 2 4-4 9-3 1-1-4-5 2-3-3v-2l-5-1-3-3v-2l-8-2-3-3v-2l-4-1-6-5v-4l3-1 2 1v-2l-3-1 3-5 2-2v-6l4-2h3l1-2h2Z"/><path fill="#d1e2eb" d="m1245 910 8 1h12l25 3 8 6 9 12 7 9v5h-8l-9-2-13-8-14-7-3-3-7-3-12-7-5-2Z"/><path fill="#cdd3d4" d="m1556 664 2 2 5 21 9 45-1 4-4-1-13-14-9-11-15-16-1-5 3 1v-2h4v-2l-2-1 1-4 1 3h3l-1 10 6-2-1-4h3v2h6v2l4 1v3h2v-4h-2v-2h-3l1-3-1-10 2-3 1-5-4-1 2-2 1 1Z"/><path fill="#79b0e2" d="m1023 801 5 3 15 11 5 8 7 18 5 13 3 6-7 1-10-9-10-8-10-9-2-4-3-20v-8Z"/><path fill="#8ab4d9" d="M775 1349h7l4 4v63l-4 4h-7l-4-4v-63Z"/><path fill="#ced4d6" d="m1267 286 5 1 2 5 1 9-1 2 2 1v2h-4v2l3 1 1 3h-5v2l3 1-1 4-1-3h-3l1 9-2 4v5h2v2l-3 3-2 3-1-6-4-3-4 1-4-4-3 1-3 6h5l-1-1v-4h2v2l3 1-1 7h-2v-2l-6 1-2-1v-3l-4 1-2 6h-5l1-4h-5l-3-4 1-4 18-5 6-4 4-9 6-17-1-4v-3Z"/><path fill="#ccdfe8" d="M1377 679h5l9 10 11 12 11 12 4 6-2 5-16-1-17-3-4-4-1-11Z"/><path fill="#d0e1eb" d="M1132 463h7l3 3 1 7 11 4 15 5 2 5-7 8-3 3h-2l-2 5-3 3h-2l-2 4-6 6h-7l4-3 1-7v-4h2v2h2l-1-3-3-1v-20l1-5-3 1h-12v2h-8v-3l-8-2-2-2Z"/><path fill="#c9dee9" d="M1733 1349h6l4 4v63l-4 4h-6l-4-4v-63Z"/><path fill="#e7eef2" d="M1030 910h11l1 4-5 2-3 2h-6v3l-6 3-5-1-1 3h-2l-1 3-11 5h-4v2h-4v2h-6v-2h2l1-4h-3v2h-2l-2 4h-2l1 5-3 1v-2l-2 2-4 1-3-1 1-5 8-11 9-11h2v-2l2-1 24-2 1-1Z"/><path fill="#ecf1f4" d="m902 680 4 1 1 1v19l-1 4v10l-3 4h-7v2l-5 1-21 1-2-3 1-4 7-8 12-13Z"/><path fill="#cadde7" d="M1561 744h3l1 3-5 5-8 6-10 7-15 11h-2l-1 3h-2l-1 3-6 2-6 5-5-1 1-9 4-10 6-9 8-4 31-10Z"/><path fill="#cbdee8" d="m899 914 8 1 2 2v4l-10 6h-2v2l-4 1-2 4-11 13-4 5-6 2-11-1-2-3 1-6 8-15 6-5Z"/><path fill="#c9cfd2" d="M1377 915h11l19 7 8 4 4 5 8 15-1 5-7 2h-8l-6-5-8-10-6-7-5-1-1-3-7-1-2-1v-2l-5-2 4-1 1-4Z"/><path fill="#c3cbd0" d="M1486 351v5l1 5 4 1v-2l-3-1 4-4h4l-1 2h-2l-1 3 3 1v4l1-4 6 1 2 1v-3h-6v-2l5-1 8 1-1 2-4 1 2 2-4 1v2h-6v2h3v4h3v4l2 1-14 14-8 7-6 7h-1l-1-36-4-2 8-11Z"/><path fill="#a7b9ca" d="m1044 409 2 4 5 26v6l-1 1-8-1-27-12-12-5-4-4 8-1 26-8 9-4Z"/><path fill="#e5eff4" d="m1078 600 8 2 2 1v2l5 2 4 5 4 7 4 5 2 6 1 2h-2l1 3 4-1 1 2h-2v2h-2v2h2l-1 2-5 2v-5l-4-3h2v-4h-2v2h-2l-1 6h-3v-2h-6v2h-3l-1-4-3-1 1-5h-2v5l-4-2v-5l4 1v-3l-5-2-3-2 1-4 1 2h2l-2-6-1-6h7l-2-4Z"/><path fill="#c9cfd2" d="m1260 827 3 3h7l4 2 1 10-1 1 2 1 1-4 5-1-2 4-14 18-5 6-5 3v-2l-3-1-1-5 1-2h3v-3l-4 1v2l-3-1 1-4-4-1v4h2l-1 4-1-2h-2l-2-7-2-1v4h2v2l-8 2-1 2-1-5 11-10 13-10 3-5Z"/><path fill="#a7b9ca" d="m1520 564 20 8 8 3 5-2v46l-5 1-10-19-15-30-3-5Z"/><path fill="#d5e3eb" d="m1130 429 5 5v10l-5 6-24 11-9 4-6-1-18-11-2-2 1-5 16-2 1-4-2-1h4l2-2 1 2-1 4 3 1-3 2 1 2h2l2-6 2 2 2 2h2l1 4-1 2h2l2 3 2-1v-4l4-1 7 1 1-2h-2l2-6 2-4 6-4Z"/><path fill="#c2cbcf" d="m1181 917 2 1-2 4 1 4 9 4 3 4v2l6 1 4 3v2l3 1-4 1-2 9-5 6-4 1v2l-5 3h-2v2l-5 2-2-3-1-29-1-13 2-5Z"/><path fill="#a8baca" d="m1540 841 5 1-1 4-11 12-8 6-9 1-34-5-2-1v-4l16-4 20-4 15-3Z"/><path fill="#c2cace" d="M1101 918h3l4 6-1 10-2 31-5 2-7-4-4-2v-2l-3-1-3-6-2-8-4-2 7-6 8-5 3-1 4-1 2-5 2-1Z"/><path fill="#edf3f3" d="m1472 368 5 1v45h-3v-2h-3v-2l-4-1 4-2-5-1v2h-2v5l-5-4h-2l-1 2-3 2-5-1v-6l7-12 12-19Z"/><path fill="#eef3f3" d="m1535 324 5 1 1 5-3 7v5l-3 3-4 6-3 2h-34l-2-1 1-5 15-8 14-8 11-6Z"/><path fill="#aabbc9" d="m1164 665 3 3 1 2 6-1 2-1v2h4l1-2 1 5 4 1v2h2v2h-4v4l-3-1 1-5h-2v2l-3 2h-3v-2h-2v-2h-2l1 5-3 1-2-6h-2l1-3 4 1 1-2h-8v2h-2v2l4 1 3 7 5 1 3 9v2l4 1-1 2-7-2-4-1-1 4h-2v2l6 1v5h-2l-1-4-5-1-2-1 1-3h2l3-9h2v4l2-2v-3l-3-1h-9l5 3-1 5-4 2-2-4-6 1-3-1-3 8h-2v-12l2-2-1-6 1-2 3-1 4-5 3-1 3 1 1-2h2l2-6Z"/><path fill="#edf0f4" d="M1023 293h5l6 6 7 14 9 8v2l11 3 2 1 18 1 6 4 1 6-4 1-22-5-15-3-7-2-4-2v-2l-4-2-3-6-7-21Z"/><path fill="#a7b9ca" d="m1197 275 2 4v7l-6 16-5 14-3-3h-5v2l-2 1h-6l-3-3-4-2v-2l4-1-1-7-4-4 1-5 4 3 5-4 19-11Z"/><path fill="#a8bac9" d="m1529 727 9 1v2l6 1 4 2v2h2v-2l4 1 1 4 9 3 2 2-9 2-6 3-34 11 3-10 5-18Z"/><path fill="#cadce6" d="M1017 723h5l4 11 8 30 2 7 4 10 3 9 1 3v7h2l1 3v8l-4 1-2-7v-4h-2l-6-21v-4l-2-1-3-12-2-7v-4h-2v2h-2l-2-4-3 2h-3l2 2 3-1 1 3h-2l-2 7-2-1-2-6v2l-4 1v-3h-3l-2-4h3v-4l4 1 2 1 3-2h3l1-3-1-2h-4l2 1v3l-8-1 1-4 2-6 1 4h2l1-2h3v2h2l-4-11v-5Z"/><path fill="#c2cace" d="m999 946 4 4v2l4-1 12 5h8v9l2 14-4 4h-15l-5-4-6-26Z"/><path fill="#bfc8ce" d="m1087 276 4 4 13 7 12 7h1v7l2 3-1 6-2 5-8 1-7-4-6 1-4-13-2-4v-10l-2 4Z"/><path fill="#cbd1d3" d="M1194 851h2v3l3 1-2 4 4 1 1 4h-2l-2 8h2l1-3 7 1 1 2h-3l5 3-4 7-8 9-9 11-5 6h-4v-7l9-35Z"/><path fill="#a6baca" d="m976 302 2 1 1 7 3 3 4 5 2 4 3 1 1-2v9h-2l2 4 2 1-3 5-1-4h-2v-3l-3 1-1 2h-2v6h3l2 6h-3v-4l-4 1 1 3 2 1-5 1v2h-2l-1 4h-2l-2 4h-3v-12l3-20 2-15Z"/><path fill="#eef3f3" d="m1257 292 4 1 1 4-9 25-6 5-10 3-27 6-5 1h-7l1-4 4-5 20-1 12-6 6-5 6-10 4-8Z"/><path fill="#e5eef3" d="m1080 225 6 1 1 5-5 1-4 2 2 6 12 2v-3l3-1 1-3 1 3v3l2 5 1 2-2 2 1 3-6 3-2-3 1-4 3-1v2l-2 1 3 1-1-5-12-3-2 1-2 5-7 10h-2v2l-4-1-3-5h7l-6-2v-2h-2l-4-5 1-4-2-3v-4l4-4 5 1 2 1v-2h2v-3Z"/><path fill="#acbcca" d="m1314 942 4 4 1 6-7 26-6 5h-7l-3-2v-12l3-20-2-5 17 2Z"/><path fill="#cadce6" d="m1288 349 5 1 14 11 3 2v2l4 2 1 5-1 2-10 4-2 2h-5l-1 3-6 3-4-4v-5l2-3h-2v-13h2v-3h-2l1-8Z"/><path fill="#7aafe1" d="m985 474 5 1 6 5 4 6 5 23v6l-4 1-15-14-6-5-1-2 1-9 3-10Z"/><path fill="#77afe4" d="m1295 475 5 1 2 3 2 9v8l-2 4h-2l1 4h-5l-13 12-3 1-2-5 4-18 3-10 5-5Z"/><path fill="#c9d0d2" d="M1576 603h2l11 21 1 5-3 1v2h4v2h-5l-2-2-2 2 2 5 2 1 1-2h4v2h-3l-1 2h-5l-2-1-2-7 2-4h-2l-1-3-5-3-5 1-4 16-3 1v2l-2-1v-3l-2-1 4-1v-2l-4-1v-6l4-1v-2h-2v-6l-1-3 4-1h10l1-3 2 1v-2h-6l1-3 4 1 1-4h2Z"/><path fill="#c0c8ce" d="m969 942 1 4 10-1 6-1-2 4 1 5 2 14v12l-2 3h-8l-5-5-5-19v-9Z"/><path fill="#aabbc9" d="m1040 954 4 4v2h2l1 2 4-2 5 3 6 2 4 3 4 1 3-4 2 16-3 3h-21l-5-5-6-21Z"/><path fill="#e1ecf2" d="m992 350 4 1 1 2v7l-1-4-4-1v3l3 1-1 5h2v-2h2l-2 5h-3l-1 3 3 1-1 5h3v8l-2 2-4-1v-4l3-1h-6v2h-4v-2l-4-2v-2h-2l-1 2-2-1-1 2v-2h-2l-3-5v-5l11-9 4-3h2v-2l5-2Z"/><path fill="#88b3d9" d="M1088 198h3l2 9v5h2l5 15v6h-4l-9-8-6-1-11 6h-6l1-5 13-15 8-10h2Z"/><path fill="#b5c1cb" d="M1162 725h2v3h4v-2h4v4l3-1-1 5-1 2h-3l1 3-3 1v4l-4 1v3h-4v2h2l-1 4-4 1-2 2-6-1-1 4h2v2h-4l-1-3-3 1 2-6h-2v-4h4v6h2v-2l2-1-2-3h2v-2h2v-8h-3l-1 4 3 1-3 1-1 2-1-6h-2v4h-2v-5h2v-3h-2v-4l4 1v5h2v-2h2v-2l-3-1 3-1v-2l4-2 4-1h2Z"/><path fill="#7db0df" d="m1196 200 5 3 9 12 10 12-1 4-9-3-8-4-6 1-9 9h-4l1-9 8-22Z"/><path fill="#d9e7ef" d="m1128 367 12 1 2 6 1 20-3 3h-7l-14-4 1-4-8 2-9 1-1-4 4-4 7 3 5-2 2-6 2-3h3v3l9 3 3-1 2-5h-4l-3 3-4-1v-2h-2v-2l6-2h-2Z"/><path fill="#cad0d2" d="M1533 640h3v2l3 1-1 5h2v2h-2v2h2v4h2v2h-2l2 9-1 4-4-2-2 3-7-2-1 4-6-1 3-3 8-5 2-1v2h5l1-2h-2l-2-4v2l-4-2h2v-3l-3 1-3 8h-4v2l-2-1-1-4-2-1 1 2v6h-2l-8-19 2-4 7 1 8 2 3-1Z"/><path fill="#d8e6ed" d="M932 570h4l5 13 8 20 1 4-3 2 1 3h-6v-2l-4-1-4 3-1 3h-3v-27l1-17Z"/><path fill="#b0beca" d="M1243 952h1v7l-6 20-5 3-4-2-4-3-7-1v4h2v-2l4-1 2 5h-2v-2h-2v2l-3 1-4-3v3l-6-2 1-10 1-6 3 4v3h2l1-3 1 3 2-1-1-4 12-6 3-1v-1l7-2Z"/><path fill="#bcc5cc" d="m1275 952 2 1v3l4 1 1 4-1 8h-2l-1 3 2 1-2 2 1 1-1 4-3 3-7 1-10-1-2-2v-8l2-1 2 4v1h2v-5l-2-1 4-1v-2l2 1v3l2 1-4 1v3l8-1-2-6h-2v-5l4-1v-2h-2v-2l-8-1 1 2 5 1v2h-2l-1 3-6 1-1-5v-7h6Zm-17 26"/><path fill="#ced4d6" d="m1492 532 2 2 2 8h2v2l-3 1 3 5 1 2 2-4 4-1 1 3h5v-2h2l6 14v3l-3 3h-4v-4l-4-1-10-4-2-2h-6v-3l-7-2-2-3v-6l3-6 1 4 6-1 1 3 2 1-3-6Z"/><path fill="#7cb0e0" d="M1182 170h5l2 2-1 4-8 14-5 4h-11l-4-4 1-11 5-5Z"/><path fill="#c9dde7" d="m1048 294 8 1 4 4 3 7 1 1 12-1 4 2 1 6-3 3-6 2h-9l-8-3-7-8-2-6v-6Zm184 0 4 1 2 2-1 8-6 9-7 4-4 1h-8l-7-3-2-2v-5l3-3 13 1 3-2 2-6 4-4Z"/><path fill="#b1bfca" d="m1188 647 2 1v5l2 1v2l8-4h3l1 3-2 3h6v8l-4 9-3 1-1-4 2-2v-4h-4l-2-4-6 3 6 1v2h-2l-1 3-3-1v-2h-2l-2-2-3 1-2-2-2 3-10-2v-4l5-3 5-1 1-2-2-1 5-2Z"/><path fill="#7db1df" d="m1243 242 6 1 12 7 1 4-4 4-18 8-5 2-5-1 1-5 9-17Z"/><path fill="#88b3d9" d="m1104 170 9 3h6l3 7 1 3v8l-3 3h-10l-6-5-8-13 1-5Z"/><path fill="#ecf2f5" d="m1112 637 5 5-1 6 3 1 1-1 2 2 4 7 9 14-1 3-6-3-5-3v-2l-5-2-9-7-4-4-4-2-2-3h3v-2h-2l-1-1-2 4-5-5-3-1 1-3 8 2v-2h3l1 3 6 2 4 2 1-3-2-4Z"/><path fill="#86b2da" d="M1035 243h6l6 8 6 11v5h-6l-14-6-8-2-3-4 1-5 6-3Z"/><path fill="#ced6db" d="m1201 329 2 1-4 4-1 3 27-5 2 1v3l-1 2-4 2v2l2 1 1 3 1-6h2v2h4v2l-4 4-1 4v3l-16-6-15-6-2-3 1-5Z"/><path fill="#7cb0e0" d="m1208 169 5 3 14 20 2 3-1 5-10-4-16-8-2-3 1-5 5-10Z"/><path fill="#cadae2" d="m992 288 4 1-4 2v2l-4 2 4 1v-2h6l2 5-5 4-3 5v13l-1 2-4-1-4-6-2-5-3-1-1-11 3-6h3l2-4 6 1Z"/><path fill="#edf0f4" d="M1001 156h8l19 10 17 8h5v2l2 1-6 1 1 5h-3v-2h-3l-1 2-9-1-1-3-4-2-2-2-7-4-5-5-4-3-6-4Z"/><path fill="#84b1db" d="M1073 170h5l3 4 2 6v6l-4 4-16 7-3 2h-5l1-9 5-2 2-4 8-12Z"/><path fill="#a7bac9" d="m856 947 3 4v2h12l5-1v9l1 12-3 3h-9l-5-6-5-13v-8Z"/><path fill="#a7b9ca" d="m1427 948 2 2v8l-4 12-5 5h-9l-4-5 1-7v-12l3 1h8l6-1Z"/><path fill="#cdd3d5" d="M1473 446h2v11l12 29-1 2-4-4v-2h-2l2 6-7-6-13-9-6 1 1-4 5-1 2-4v-3l3-4h4l1-10Z"/><path fill="#cfe0e9" d="M1280 154h5v3l-8 7-14 10-11 8h-5l-5-4 1-6Z"/><path fill="#bec7cd" d="m1092 761 2 1 1 6 3 2v6h2v3l6-1 1-5 5 2 5-2 3 5v-5l2-1v2h2v2h-2l1 5-3 1v-2h-2l-2 7h3l2-3 5 2v2h5l1-4 4 1v9l-3-1 1-5h-2v2l-6 1-3-1-1 4h-2v-4l-3 6-1-2-9-2-2-4 2-1v-6h-2l-2 3-7-8-3-4-2-6-3-1 4-1Z"/><path fill="#cfe1eb" d="m1113 320 1 4 4 4-1-5 5-3h2v2h2v2h6l-1 4-5-1-2-1-1-1-1 5h-2v3l4-1 2 6v4l3 1-1 5h-3l-1-4h-2l-1 2-7-4-4 4v-4h-4l-1 3-1-2-4 1v-4l3-1-2-7 4 1 3 4 2 1 1-6-1-4 3-1-2-6Z"/><path fill="#e0ecf2" d="m1135 304 1 2 6-1v9h-4l-1 5 1 3h-2l-2 6-4 2-6-1v3l-4 1v-3l2-2v-4h2v2l7 2 1-4h-6v-2h-2v-2l-6 3v5l-4-2-1-3 1-3h2l2-4 5-4 3-1 4-4Z"/><path fill="#c7ced1" d="M1297 146h6l-1 5-13 19-6 9-1-4-4-4-4-1 1-6 9-7 1-2-3-2Z"/><path fill="#bec7cd" d="M1080 860h4v2l-6 2 5 3-1 4 1 3-2 5 1 2 4-1 1-2-1-6-2-1 3-3 5 1 2 7 2 2-1 4h-3v2h6l2 8h-2l-1 3-3-1v-2h-2v4l-4-1-4-5v-4l-2-1-4-4-1-5h3v-5l-6-1 1-4 1-4Z"/><path fill="#c0c8ce" d="M1142 754h2l-1 4-1 2 4-2v4h4v-2h-2l1-4h6l2-1v5l-2 1v3l-5 8-3 2-3 7-1 2h-2l1 3-3 1-1-5-2-1-6 1v2h-2l-4-8h5l7 3 1-3 1-2h2v-2h2l-2-4-4-4v-2h2l2-6h2Z"/><path fill="#e9f0f4" d="M1255 748h3v7l-2 8h-2l-1 7-1 6h-2v8l-9 29h-2l-1 6-4 2 1-10 6-19 1-5 3-9 2 1v-3l1-4h2v-3l-2-1 2-4 3-15Z"/><path fill="#a7b9ca" d="m1297 189 4 1v4l-18 11-5 3h-2l-2 6-4-5-2-7 2-5 4-6 1 3 8-1Z"/><path fill="#bbc5cc" d="m1164 620 2 4-1 3 8 3h2l-2 5-8 12-5-3v4h-2l-2-2h-4l-4-4v-2h3v-2h5v-2h-2l-1-2-1 2h-2l-2-6 4-1 2 1 1-2 2 7h2v-5l-1-2h-2v-2h5l1-4h2Z"/><path fill="#b6c2cb" d="M946 655h5l-1 7 1 2 2-3 1 7-2 4h4v2h-3l-1 2-3 1v3h-3l-1-2h-3v-2h-2v4l2 1v5h2l-1 3h-7l2 2v5h-2v-4l-4-1 5-14Z"/><path fill="#ecf2f4" d="M1133 151h6l2 1v2l-3 1 3 1 1 6-3 1-1-3h-2l-1 4-2 4h3v2h4v-2l-4-1v-3l5 1v19h-3v3l2 1v-2h2l-2 4-4 1-3-3 1-4h-2v-4l4 1 3 1 1-2-4-1-4-1v-4h3v-4l-3 1v-3l-3-1 1-4-4-1v-2l2-1-3-3 1-3Z"/><path fill="#a5b9ca" d="m884 853 4 1v4l3-1 1 3-1 2h2v4l-3 19-1 3-5 1-4-10-5-13v-2l7 1 4-2 1-5h-2Z"/><path fill="#b7c2cb" d="M1534 731h2l2 3v4h-2v2l4 1v6l7 1-3 2-27 9 3-10 3-10 7-1 6-2Z"/><path fill="#edf0f4" d="M1026 748h2l2 8h2l3 12 2 5 3 8 3 9 1 3v7h2l1 3v8l-4 1-2-7v-4h-2l-6-21v-4l-2-1-3-12-3-13Z"/><path fill="#cbd1d3" d="M1201 829h3l5 10 2 3-5 1 5 1 1 4-1 2h2l1 9-2 5-4-2-2-4v-6h-2v2l-2 2-2 2v-6h-3l-1-4h2l2-4h-3l1-7Z"/><path fill="#d7e6ee" d="m1083 605 5 1v2l-4 1 2 1v2h6v-2l-2-1 4-1 7 11 4 5 2 6 1 2h-2l1 3 4-1 1 2h-2v2h-2v2h2l-1 2-5 2v-5l-4-3h2v-10l1-1-3-1v-2h-6v2l-3-1v-3h-6l-1-4 2-1-3-1-1 4h-2v-2l-3-1 1-3-2-1 5-3Z"/><path fill="#c3cbcf" d="m1260 827 3 3h7l4 2 1 10-1 1 2 1 1-4 5-1-2 4-14 18-2 1 2-5-1-3 3-3 3-3-3-2v-2h2l1-4h-3l-1 4h-2l-1 2 4 1-1 3h-3v-2l-2-1-1-4 3-1v-2l-4-1-4-2 3-5Z"/><path fill="#c9dde7" d="M1132 463h7l3 3 1 7 2 2-5 1h-12v2h-8v-3l-8-2-2-2Z"/><path fill="#c2c9ce" d="m1267 286 5 1 2 5 1 9-1 2 2 1v2h-4v2l3 1 1 3h-5v2l3 1-1 4-1-3h-3l-3-4-2-2-1 4-3 1-2-1v-2l2-1-1-5 3-1 1-5 8 2-2-3-5-1v-2h4l-1-4h-3l-1-4Z"/><path fill="#a4b8cb" d="m1412 841 5 1-1 3h-3l-1 3h-3l3 3v2l-4 1v-4h-2v6h5l-1 4-1 5-4 8-9 3 3 1 3-1 1 3-3 7-2 1-2-1v-2h2l1-3-3-1v-3h-4v-3h2l-1-5 3-1v-2l4-2 5 2 1-6-2-1-2-7-2-1 1-5 7 1 2-4Z"/><path fill="#b1bfca" d="m1158 679 4 2v3l2 1-5 2 1 2 3 3-1 4-4 2-2-4-6 1-3-1-3 8h-2v-12l2-2-1-6 1-2h8v2h5Z"/><path fill="#abbbc9" d="m1590 627 2 2v12l-5 21-4 1-2-4-3-17v-6l2 1 2 5 9-2v-2l-5 2-3-1-2-6 4-2 3 2 3 1v-2h-4v-2Z"/><path fill="#c0c9ce" d="M985 192h6l4 2 8 1v2l5 1v4h2v-9l4 4 2 4-1 7-5 9h-1l1-7 1-5-4-1-1 1 2 1v4l-4-1-18-13-2-3Z"/><path fill="#cadce5" d="m1550 358 4 1v3l5 1 2 4 4 2 3 4-1 7-8 3h-6l-6-1-2 2-3-4v-2l4-2 2 2 6 1 5-4 1-6-9 3-2-4h4l-1-3-2-1-1-5Z"/><path fill="#cdd4d4" d="m1256 838 5 1 3 1v2l-2 2 2 6 3-1 1-2-4-1 1-3h2l1-3h3l-1 4h-2l2 2 2 3-4 3h-2l-1 4 2 1-5 9-6 4v-2l-3-1-1-5 1-2h3v-3l6 1-1-8-1-4h-2v-2h-2v4l3 1-1 3 2 1-5 1-2-10 1-2h3Z"/></svg>